<svg width="220" height="220" viewBox="0 0 220 220" fill="none" xmlns="http://www.w3.org/2000/svg">
<circle cx="110" cy="110" r="110" fill="#F7931A"/>
<path fill-rule="evenodd" clip-rule="evenodd" d="M78.1801 50.29L103.46 57.06L109.11 36L121.75 39.43L116.32 59.62L126.63 62.39L132.07 41.98L144.93 45.42L139.39 65.94C139.39 65.94 160.39 70.59 165.33 87.67C170.27 104.75 154.47 113.72 149.59 114.06C149.59 114.06 167.99 124.15 161.67 144C155.35 163.85 135.95 167.4 115.54 162.85L110 184.13L97.1401 180.69L102.79 159.74L92.5901 156.96L86.9401 178.06L74.1801 174.63L79.8401 153.63L53.8901 146.63L60.4301 132.11C60.4301 132.11 67.7501 134.11 70.5201 134.77C73.2901 135.43 75.0701 132.55 75.8501 129.67C76.6301 126.79 88.3801 79.06 89.4901 75.13C90.6001 71.2 90.1501 68.13 85.4901 66.92C80.8301 65.71 74.4901 63.82 74.4901 63.82L78.1801 50.29ZM103.68 113.5L96.6801 141.33C96.6801 141.33 131.39 153.86 135.83 136.23C140.27 118.6 103.68 113.5 103.68 113.5ZM106.9 100.3L113.77 74.8C113.77 74.8 143.49 80.12 139.83 94.31C136.17 108.5 118.65 103.06 106.9 100.3Z" fill="white"/>
</svg>
