<svg width="220" height="220" viewBox="0 0 220 220" fill="none" xmlns="http://www.w3.org/2000/svg">
<circle cx="110" cy="110" r="110" fill="url(#paint0_linear_380_536)"/>
<path opacity="0.7" d="M74.0225 45.86L147.805 88.4231V131.866L35 66.7187L71.1969 45.86C71.6358 45.6066 72.1338 45.4731 72.6406 45.4731C73.1475 45.4731 73.6454 45.6066 74.0844 45.86" fill="#323232"/>
<path opacity="0.9" d="M147.805 45L110.219 66.725L147.805 88.4225V45Z" fill="#323232"/>
<path d="M147.805 45L183.995 65.8725C184.45 66.1189 184.831 66.4831 185.097 66.927C185.363 67.3709 185.505 67.8781 185.508 68.3956V153.57L147.805 131.866V45Z" fill="#323232"/>
<path opacity="0.9" d="M185.432 153.571L149.242 174.423C148.799 174.663 148.302 174.789 147.798 174.789C147.294 174.789 146.797 174.663 146.354 174.423L72.5718 131.866V88.3613L185.432 153.571Z" fill="#323232"/>
<path opacity="0.6" d="M35 66.7256V151.886C35.0016 152.405 35.143 152.914 35.4091 153.359C35.6752 153.804 36.0564 154.169 36.5125 154.416L72.7094 175.289V88.3612L35 66.7256Z" fill="#323232"/>
<path opacity="0.7" d="M72.6475 175.28L110.219 153.569L72.6475 131.864V175.28Z" fill="#323232"/>
<defs>
<linearGradient id="paint0_linear_380_536" x1="-4.28596e-08" y1="243.833" x2="190.029" y2="240.625" gradientUnits="userSpaceOnUse">
<stop stop-color="#A7722E"/>
<stop offset="0.793224" stop-color="#E6D39B"/>
<stop offset="1" stop-color="#DEBC67"/>
</linearGradient>
</defs>
</svg>
