<svg width="43" height="30" viewBox="0 0 43 30" fill="none" xmlns="http://www.w3.org/2000/svg">
<path fill-rule="evenodd" clip-rule="evenodd" d="M21.5001 25.3125C14.2665 25.3125 7.99088 21.1243 4.93308 15C7.99088 8.87569 14.2665 4.6875 21.5001 4.6875C28.7337 4.6875 35.0094 8.87569 38.0672 15C35.0094 21.1243 28.7337 25.3125 21.5001 25.3125ZM0.134504 15.6713C-0.0446722 15.2422 -0.0446719 14.7578 0.134505 14.3287C3.65031 5.90912 11.8927 0 21.5001 0C31.1076 0 39.3499 5.90913 42.8657 14.3287C43.0449 14.7578 43.0449 15.2422 42.8657 15.6713C39.3499 24.0909 31.1076 30 21.5001 30C11.8927 30 3.65031 24.0909 0.134504 15.6713ZM21.2501 22.5C25.2542 22.5 28.5001 19.2541 28.5001 15.25C28.5001 11.2459 25.2542 8 21.2501 8C17.2461 8 14.0001 11.2459 14.0001 15.25C14.0001 19.2541 17.2461 22.5 21.2501 22.5Z" fill="#AFAFAF"/>
</svg>
