<svg width="11" height="9" viewBox="0 0 11 9" fill="none" xmlns="http://www.w3.org/2000/svg">
<path fill-rule="evenodd" clip-rule="evenodd" d="M4.11218 4.49999L0.109989 0.621315C-0.0366735 0.479179 -0.0366739 0.248731 0.109989 0.106595C0.256651 -0.0355415 0.494438 -0.0355415 0.641101 0.106595L4.89 4.22436C4.96812 4.30008 5.00463 4.40085 4.99952 4.49999C5.00463 4.59913 4.96812 4.69991 4.89 4.77562L0.641101 8.89339C0.494439 9.03553 0.256652 9.03553 0.109989 8.89339C-0.0366735 8.75125 -0.0366731 8.52081 0.109989 8.37867L4.11218 4.49999ZM7.11218 4.49999L3.10999 0.621315C2.96333 0.479179 2.96333 0.248731 3.10999 0.106595C3.25665 -0.0355415 3.49444 -0.0355415 3.6411 0.106595L7.89 4.22436C7.96812 4.30008 8.00463 4.40085 7.99952 4.49999C8.00463 4.59913 7.96812 4.69991 7.89 4.77562L3.6411 8.89339C3.49444 9.03553 3.25665 9.03553 3.10999 8.89339C2.96333 8.75125 2.96333 8.52081 3.10999 8.37867L7.11218 4.49999ZM6.10999 0.621315L10.1122 4.49999L6.10999 8.37867C5.96333 8.52081 5.96333 8.75125 6.10999 8.89339C6.25665 9.03553 6.49444 9.03553 6.6411 8.89339L10.89 4.77562C10.9681 4.69991 11.0046 4.59913 10.9995 4.49999C11.0046 4.40085 10.9681 4.30008 10.89 4.22436L6.6411 0.106595C6.49444 -0.0355415 6.25665 -0.0355415 6.10999 0.106595C5.96333 0.248731 5.96333 0.479179 6.10999 0.621315Z" fill="#F5C249"/>
</svg>
