<svg width="220" height="220" viewBox="0 0 220 220" fill="none" xmlns="http://www.w3.org/2000/svg">
<circle cx="110" cy="110" r="110" fill="#F3BA2F"/>
<circle cx="110" cy="110" r="110" fill="url(#paint0_linear_380_544)"/>
<path d="M83.0475 98.7775L109.75 72.075L136.466 98.7913L152.004 83.2537L109.75 41L67.51 83.24L83.0475 98.7775ZM41 109.75L56.5375 94.2125L72.075 109.75L56.5375 125.287L41 109.75ZM83.0475 120.723L109.75 147.425L136.466 120.709L152.004 136.239L109.75 178.5L67.51 136.26L67.4894 136.239L83.0475 120.723ZM147.425 109.75L162.963 94.2125L178.5 109.75L162.963 125.287L147.425 109.75ZM125.507 109.736H125.521V109.75L109.75 125.521L93.9994 109.777L93.9719 109.75L93.9994 109.729L96.7562 106.966L98.0969 105.625L109.75 93.9788L125.514 109.743L125.507 109.736Z" fill="#323232"/>
<defs>
<linearGradient id="paint0_linear_380_544" x1="-4.28596e-08" y1="243.833" x2="190.029" y2="240.625" gradientUnits="userSpaceOnUse">
<stop stop-color="#A7722E"/>
<stop offset="0.793224" stop-color="#E6D39B"/>
<stop offset="1" stop-color="#DEBC67"/>
</linearGradient>
</defs>
</svg>
