<svg width="100" height="100" viewBox="0 0 100 100" fill="none" xmlns="http://www.w3.org/2000/svg">
<circle cx="50" cy="50" r="50" fill="#E21516"/>
<path fill-rule="evenodd" clip-rule="evenodd" d="M69.6525 37.6255C70.4336 36.8445 70.4336 35.5781 69.6525 34.7971L64.7028 29.8473C63.9217 29.0663 62.6554 29.0663 61.8744 29.8473L50.9142 40.8075C50.1332 41.5885 48.8668 41.5885 48.0858 40.8075L37.1256 29.8473C36.3446 29.0663 35.0783 29.0663 34.2972 29.8473L29.3475 34.7971C28.5664 35.5781 28.5664 36.8445 29.3475 37.6255L40.3076 48.5857C41.0887 49.3667 41.0887 50.633 40.3076 51.4141L29.3475 62.3742C28.5664 63.1553 28.5664 64.4216 29.3475 65.2027L34.2972 70.1524C35.0783 70.9335 36.3446 70.9335 37.1256 70.1524L48.0858 59.1923C48.8668 58.4112 50.1332 58.4112 50.9142 59.1923L61.8744 70.1524C62.6554 70.9335 63.9217 70.9335 64.7028 70.1524L69.6525 65.2027C70.4336 64.4216 70.4336 63.1553 69.6525 62.3742L58.6924 51.4141C57.9113 50.633 57.9113 49.3667 58.6924 48.5857L69.6525 37.6255Z" fill="white"/>
</svg>
