<svg width="43" height="42" viewBox="0 0 43 42" fill="none" xmlns="http://www.w3.org/2000/svg">
<path fill-rule="evenodd" clip-rule="evenodd" d="M4.50525 0.753418L0.999878 4.25879L38.2419 41.5008L41.7472 37.9954L4.50525 0.753418ZM0.134383 20.3287C1.7251 16.5193 4.2834 13.2238 7.49792 10.757L10.836 14.095C8.35084 15.8636 6.3138 18.2344 4.93295 21C7.99075 27.1243 14.2664 31.3125 21.5 31.3125C23.4744 31.3125 25.3775 31.0005 27.1632 30.4222L30.7852 34.0442C27.9423 35.3021 24.8018 36 21.5 36C11.8926 36 3.65019 30.0909 0.134382 21.6713C-0.0447943 21.2422 -0.044794 20.7578 0.134383 20.3287ZM15.8545 6.69994L19.91 10.7555C20.4341 10.7105 20.9644 10.6875 21.5 10.6875C28.7336 10.6875 35.0092 14.8757 38.067 21C37.2112 22.7142 36.1032 24.2767 34.7927 25.6381L38.0885 28.934C40.099 26.8519 41.7292 24.3927 42.8656 21.6713C43.0448 21.2422 43.0448 20.7578 42.8656 20.3287C39.3498 11.9091 31.1074 6 21.5 6C19.5528 6 17.6616 6.24274 15.8545 6.69994ZM14 21.25C14 20.0885 14.2731 18.9908 14.7586 18.0177L24.4823 27.7414C23.5092 28.2269 22.4115 28.5 21.25 28.5C17.2459 28.5 14 25.2541 14 21.25Z" fill="#AFAFAF"/>
</svg>
