<svg width="21" height="20" viewBox="0 0 21 20" fill="none" xmlns="http://www.w3.org/2000/svg">
<path fill-rule="evenodd" clip-rule="evenodd" d="M12.3375 6.76662L10.4 0.760436L8.46247 6.76662C8.26032 7.39325 7.68057 7.81752 7.02641 7.81752L0.756428 7.81752L5.82895 11.5295C6.35817 11.9168 6.57962 12.6033 6.37748 13.2299L4.43995 19.2361L9.51247 15.5241C10.0417 15.1368 10.7583 15.1368 11.2875 15.5241L16.3601 19.2361L14.4225 13.2299C14.2204 12.6033 14.4418 11.9168 14.9711 11.5295L20.0436 7.81752H13.7736C13.1194 7.81752 12.5397 7.39326 12.3375 6.76662ZM11.118 0.525449C10.892 -0.175149 9.90798 -0.17515 9.68197 0.525447L7.74444 6.53163C7.64337 6.84495 7.35349 7.05708 7.02641 7.05708H0.75643C0.0250616 7.05708 -0.279028 7.99973 0.312661 8.43272L5.38518 12.1447C5.6498 12.3384 5.76052 12.6816 5.65945 12.9949L3.72192 19.0011C3.49591 19.7017 4.29202 20.2843 4.88371 19.8513L9.95623 16.1393C10.2208 15.9457 10.5792 15.9457 10.8438 16.1393L15.9163 19.8513C16.508 20.2843 17.3041 19.7017 17.0781 19.0011L15.1406 12.9949C15.0395 12.6816 15.1502 12.3384 15.4148 12.1447L20.4873 8.43272C21.079 7.99973 20.7749 7.05708 20.0436 7.05708H13.7736C13.4465 7.05708 13.1566 6.84495 13.0556 6.53163L11.118 0.525449Z" fill="#F5C249"/>
</svg>
