<svg width="220" height="220" viewBox="0 0 220 220" fill="none" xmlns="http://www.w3.org/2000/svg">
<path d="M110 220C170.751 220 220 170.751 220 110C220 49.2487 170.751 0 110 0C49.2487 0 0 49.2487 0 110C0 170.751 49.2487 220 110 220Z" fill="#EF0027"/>
<path d="M150.782 68.1509L51.5625 49.8909L103.778 181.286L176.536 92.6396L150.782 68.1509ZM149.188 76.1946L164.368 90.6252L122.856 98.1396L149.188 76.1946ZM113.836 96.634L70.0837 60.3477L141.597 73.5065L113.836 96.634ZM110.722 103.055L103.586 162.043L65.12 65.2221L110.722 103.048V103.055ZM117.322 106.183L163.295 97.8646L110.564 162.098L117.322 106.183Z" fill="white"/>
</svg>
