<svg width="220" height="220" viewBox="0 0 220 220" fill="none" xmlns="http://www.w3.org/2000/svg">
<circle cx="110" cy="110" r="110" fill="url(#paint0_linear_380_530)"/>
<path fill-rule="evenodd" clip-rule="evenodd" d="M123.214 114.752V114.739C122.458 114.794 118.56 115.028 109.863 115.028C102.919 115.028 98.0311 114.821 96.3124 114.739V114.759C69.5824 113.584 49.6311 108.929 49.6311 103.361C49.6311 97.7988 69.5824 93.1444 96.3124 91.9481V110.126C98.0586 110.249 103.064 110.545 109.98 110.545C118.278 110.545 122.437 110.201 123.214 110.132V91.9619C149.889 93.1512 169.792 97.8056 169.792 103.361C169.792 108.929 149.889 113.57 123.214 114.752ZM123.214 90.0713V73.805H160.435V49H59.0911V73.805H96.3124V90.0644C66.0624 91.4531 43.313 97.4481 43.313 104.626C43.313 111.803 66.0624 117.791 96.3124 119.187V171.313H123.214V119.173C153.416 117.784 176.11 111.796 176.11 104.626C176.11 97.455 153.416 91.4669 123.214 90.0713Z" fill="#323232"/>
<defs>
<linearGradient id="paint0_linear_380_530" x1="-4.28596e-08" y1="243.833" x2="190.029" y2="240.625" gradientUnits="userSpaceOnUse">
<stop stop-color="#A7722E"/>
<stop offset="0.793224" stop-color="#E6D39B"/>
<stop offset="1" stop-color="#DEBC67"/>
</linearGradient>
</defs>
</svg>
